<svg xmlns="http://www.w3.org/2000/svg" viewBox="0 0 108.68 95.35">
    <defs>
        
    </defs>
    <g id="Capa_2" data-name="Capa 2">
        <g id="Capa_1-2" data-name="Capa 1">
            <path class="cls-1"
                d="M98.51,69.32H39.66L19.12,3.42H0V0H21.64l5.67,18.19h81.37ZM42.18,65.89H95.7l8.81-44.28H28.37Z" />
            <path class="cls-1"
                d="M51.73,95.35a9.84,9.84,0,1,1,9.84-9.84A9.85,9.85,0,0,1,51.73,95.35Zm0-16.26a6.42,6.42,0,1,0,6.42,6.42A6.43,6.43,0,0,0,51.73,79.09Z" />
            <path class="cls-1"
                d="M87.25,95.35a9.84,9.84,0,1,1,9.84-9.84A9.85,9.85,0,0,1,87.25,95.35Zm0-16.26a6.42,6.42,0,1,0,6.41,6.42A6.43,6.43,0,0,0,87.25,79.09Z" />
        </g>
    </g>
</svg>