<svg xmlns="http://www.w3.org/2000/svg" viewBox="0 0 68.26 90.48">
    <defs>
   
    </defs>
    <g id="Capa_2" data-name="Capa 2">
        <g id="Capa_1-2" data-name="Capa 1">
            <path class="cls-1"
                d="M68.26,90.48H0V76.31A30.46,30.46,0,0,1,30.42,45.89h7.42A30.46,30.46,0,0,1,68.26,76.31ZM3.59,86.88H64.67V76.31A26.87,26.87,0,0,0,37.84,49.48H30.42A26.87,26.87,0,0,0,3.59,76.31Z" />
            <path class="cls-1"
                d="M35,42.28A21.14,21.14,0,1,1,56.14,21.14,21.16,21.16,0,0,1,35,42.28ZM35,3.6A17.55,17.55,0,1,0,52.55,21.14,17.56,17.56,0,0,0,35,3.6Z" />
        </g>
    </g>
</svg>